HIERARCHY
ROOT Hips
{
    OFFSET   0.000000   0.000000   0.000000
    CHANNELS 6 Xposition Yposition Zposition Zrotation Xrotation Yrotation
    JOINT Chest
    {
        OFFSET   0.000000   8.007230   0.000000
        CHANNELS 3 Zrotation Xrotation Yrotation
        JOINT Chest2
        {
            OFFSET   0.000000  22.077100   0.000000
            CHANNELS 3 Zrotation Xrotation Yrotation
            JOINT Neck
            {
                OFFSET   0.000000  23.254800  -0.000021
                CHANNELS 3 Zrotation Xrotation Yrotation
                JOINT Head
                {
                    OFFSET   0.000000  14.370000   1.956610
                    CHANNELS 3 Zrotation Xrotation Yrotation
                    End Site
                    {
                        OFFSET   0.000000  19.566000   0.000000
                    }
                }
            }
            JOINT LeftCollar
            {
                OFFSET   3.911900  19.017000  -0.467063
                CHANNELS 3 Zrotation Xrotation Yrotation
                JOINT LeftShoulder
                {
                    OFFSET  10.383700   0.000000   0.000000
                    CHANNELS 3 Zrotation Xrotation Yrotation
                    JOINT LeftElbow
                    {
                        OFFSET  26.662100   0.001529   0.000325
                        CHANNELS 3 Zrotation Xrotation Yrotation
                        JOINT LeftWrist
                        {
                            OFFSET  28.869000  -0.000011  -0.000096
                            CHANNELS 3 Zrotation Xrotation Yrotation
                            JOINT LeftFinger0
                            {
                                OFFSET   2.044650  -2.323460   3.252850
                                CHANNELS 3 Zrotation Xrotation Yrotation
                                JOINT LeftFinger01
                                {
                                    OFFSET   3.088130   0.000000   0.000000
                                    CHANNELS 3 Zrotation Xrotation Yrotation
                                    JOINT LeftFinger02
                                    {
                                        OFFSET   2.639460   0.000000   0.000000
                                        CHANNELS 3 Zrotation Xrotation Yrotation
                                        End Site
                                        {
                                            OFFSET   2.582190   0.000000   0.000000
                                        }
                                    }
                                }
                            }
                            JOINT LeftFinger1
                            {
                                OFFSET   8.364480   0.000000   3.252850
                                CHANNELS 3 Zrotation Xrotation Yrotation
                                JOINT LeftFinger11
                                {
                                    OFFSET   4.646930   0.000000   0.000000
                                    CHANNELS 3 Zrotation Xrotation Yrotation
                                    JOINT LeftFinger12
                                    {
                                        OFFSET   2.323460   0.000000   0.000000
                                        CHANNELS 3 Zrotation Xrotation Yrotation
                                        End Site
                                        {
                                            OFFSET   2.273050   0.000000   0.000000
                                        }
                                    }
                                }
                            }
                            JOINT LeftFinger2
                            {
                                OFFSET   8.364480   0.000016   1.078090
                                CHANNELS 3 Zrotation Xrotation Yrotation
                                JOINT LeftFinger21
                                {
                                    OFFSET   5.111620   0.000000   0.000000
                                    CHANNELS 3 Zrotation Xrotation Yrotation
                                    JOINT LeftFinger22
                                    {
                                        OFFSET   2.788160   0.000017   0.000000
                                        CHANNELS 3 Zrotation Xrotation Yrotation
                                        End Site
                                        {
                                            OFFSET   2.727660   0.000000   0.000000
                                        }
                                    }
                                }
                            }
                            JOINT LeftFinger3
                            {
                                OFFSET   7.899780   0.000015  -1.078090
                                CHANNELS 3 Zrotation Xrotation Yrotation
                                JOINT LeftFinger31
                                {
                                    OFFSET   4.646920   0.000000   0.000000
                                    CHANNELS 3 Zrotation Xrotation Yrotation
                                    JOINT LeftFinger32
                                    {
                                        OFFSET   2.323470   0.000000   0.000000
                                        CHANNELS 3 Zrotation Xrotation Yrotation
                                        End Site
                                        {
                                            OFFSET   2.273050   0.000000   0.000000
                                        }
                                    }
                                }
                            }
                            JOINT LeftFinger4
                            {
                                OFFSET   7.435090   0.000000  -3.252850
                                CHANNELS 3 Zrotation Xrotation Yrotation
                                JOINT LeftFinger41
                                {
                                    OFFSET   3.717550   0.000000   0.000000
                                    CHANNELS 3 Zrotation Xrotation Yrotation
                                    JOINT LeftFinger42
                                    {
                                        OFFSET   1.858760   0.000000   0.000000
                                        CHANNELS 3 Zrotation Xrotation Yrotation
                                        End Site
                                        {
                                            OFFSET   1.818440   0.000000   0.000000
                                        }
                                    }
                                }
                            }
                        }
                    }
                }
            }
            JOINT RightCollar
            {
                OFFSET  -3.911900  19.017000  -0.467062
                CHANNELS 3 Zrotation Xrotation Yrotation
                JOINT RightShoulder
                {
                    OFFSET -10.383700   0.000015   0.000000
                    CHANNELS 3 Zrotation Xrotation Yrotation
                    JOINT RightElbow
                    {
                        OFFSET -26.662100   0.001341   0.000385
                        CHANNELS 3 Zrotation Xrotation Yrotation
                        JOINT RightWrist
                        {
                            OFFSET -28.869000   0.000025  -0.000080
                            CHANNELS 3 Zrotation Xrotation Yrotation
                            JOINT RightFinger0
                            {
                                OFFSET  -2.044650  -2.323490   3.252850
                                CHANNELS 3 Zrotation Xrotation Yrotation
                                JOINT RightFinger01
                                {
                                    OFFSET  -3.088130   0.000000   0.000000
                                    CHANNELS 3 Zrotation Xrotation Yrotation
                                    JOINT RightFinger02
                                    {
                                        OFFSET  -2.639460   0.000000   0.000000
                                        CHANNELS 3 Zrotation Xrotation Yrotation
                                        End Site
                                        {
                                            OFFSET  -2.582190   0.000000   0.000000
                                        }
                                    }
                                }
                            }
                            JOINT RightFinger1
                            {
                                OFFSET  -8.364480   0.000000   3.252850
                                CHANNELS 3 Zrotation Xrotation Yrotation
                                JOINT RightFinger11
                                {
                                    OFFSET  -4.646930   0.000000   0.000000
                                    CHANNELS 3 Zrotation Xrotation Yrotation
                                    JOINT RightFinger12
                                    {
                                        OFFSET  -2.323470   0.000000   0.000000
                                        CHANNELS 3 Zrotation Xrotation Yrotation
                                        End Site
                                        {
                                            OFFSET  -2.273050   0.000000   0.000000
                                        }
                                    }
                                }
                            }
                            JOINT RightFinger2
                            {
                                OFFSET  -8.364480   0.000000   1.078090
                                CHANNELS 3 Zrotation Xrotation Yrotation
                                JOINT RightFinger21
                                {
                                    OFFSET  -5.111610   0.000000   0.000000
                                    CHANNELS 3 Zrotation Xrotation Yrotation
                                    JOINT RightFinger22
                                    {
                                        OFFSET  -2.788160   0.000000   0.000000
                                        CHANNELS 3 Zrotation Xrotation Yrotation
                                        End Site
                                        {
                                            OFFSET  -2.727660   0.000000   0.000000
                                        }
                                    }
                                }
                            }
                            JOINT RightFinger3
                            {
                                OFFSET  -7.899780   0.000000  -1.078090
                                CHANNELS 3 Zrotation Xrotation Yrotation
                                JOINT RightFinger31
                                {
                                    OFFSET  -4.646920   0.000000   0.000000
                                    CHANNELS 3 Zrotation Xrotation Yrotation
                                    JOINT RightFinger32
                                    {
                                        OFFSET  -2.323470   0.000000   0.000000
                                        CHANNELS 3 Zrotation Xrotation Yrotation
                                        End Site
                                        {
                                            OFFSET  -2.273050   0.000000   0.000000
                                        }
                                    }
                                }
                            }
                            JOINT RightFinger4
                            {
                                OFFSET  -7.435090   0.000000  -3.252850
                                CHANNELS 3 Zrotation Xrotation Yrotation
                                JOINT RightFinger41
                                {
                                    OFFSET  -3.717550   0.000000   0.000000
                                    CHANNELS 3 Zrotation Xrotation Yrotation
                                    JOINT RightFinger42
                                    {
                                        OFFSET  -1.858770   0.000000   0.000000
                                        CHANNELS 3 Zrotation Xrotation Yrotation
                                        End Site
                                        {
                                            OFFSET  -1.818440   0.000000   0.000000
                                        }
                                    }
                                }
                            }
                        }
                    }
                }
            }
        }
    }
    JOINT LeftHip
    {
        OFFSET   9.783010   0.000000   0.000000
        CHANNELS 3 Zrotation Xrotation Yrotation
        JOINT LeftKnee
        {
            OFFSET   0.000070 -41.789100   0.000028
            CHANNELS 3 Zrotation Xrotation Yrotation
            JOINT LeftAnkle
            {
                OFFSET   0.000087 -41.133200  -0.000100
                CHANNELS 3 Zrotation Xrotation Yrotation
                JOINT LeftToe
                {
                    OFFSET   0.000000  -6.358960  14.674500
                    CHANNELS 3 Zrotation Xrotation Yrotation
                    End Site
                    {
                        OFFSET   0.000000   0.000000   3.913200
                    }
                }
            }
        }
    }
    JOINT RightHip
    {
        OFFSET  -9.783020   0.000000   0.000000
        CHANNELS 3 Zrotation Xrotation Yrotation
        JOINT RightKnee
        {
            OFFSET   0.000044 -41.789100  -0.000870
            CHANNELS 3 Zrotation Xrotation Yrotation
            JOINT RightAnkle
            {
                OFFSET  -0.000090 -41.133200  -0.000245
                CHANNELS 3 Zrotation Xrotation Yrotation
                JOINT RightToe
                {
                    OFFSET   0.000000  -6.358960  14.674500
                    CHANNELS 3 Zrotation Xrotation Yrotation
                    End Site
                    {
                        OFFSET   0.000000   0.000000   3.913200
                    }
                }
            }
        }
    }
}
MOTION
Frames: 5
Frame Time:   0.016667
  5.722060  89.367800  -2.180670  -3.242970 -11.059100  -6.412330  -0.000231   8.327870   0.808967  -0.122770  16.654900   1.644490 -12.128700  -6.624750  -1.420190 -20.540600 -11.639100   7.583720  13.892400   1.847470   7.961900 -72.154100 -30.071000   4.729420   0.259338 -25.120800 -55.558500 120.833000 -75.281100 122.055000  35.209600  14.803900 -53.605100 -25.377600  -0.001052   0.001693  -7.688820   0.000117   0.000741 -22.463600   0.942593  -2.278470 -18.394600   0.009123   0.001499 -12.876300   0.001392   0.005255 -24.805100   0.090860  -0.196583 -24.805300  -0.004144   0.010055 -16.520400  -0.002331  -0.001515 -23.432500  -2.349020   5.402120 -23.543400  -0.003320  -0.000672 -15.679900  -0.002227  -0.003885 -27.189800 -10.535600  19.592700 -43.520900  -0.001912   0.002653 -28.985000  -0.001739  -0.001610 -13.658900   0.516866  -3.846230  72.273300 -34.080800   1.662230  -3.965320 -25.872300  43.002400 -114.969000 -72.338400 -102.699000 -39.296300  28.381700  65.927900  24.737800  -0.002617   0.001264   7.368920  -0.002899   0.006077  28.894100  -2.867470  -5.179330  23.746800   0.003125   0.003783  16.622700   0.001945   0.003260  26.656000  -3.514310  -6.961890  26.869400   0.007401   0.003076  17.895000   0.005237  -0.000625  27.661800  -5.132190  -9.684920  32.653100   0.007324   0.001277  21.747000   0.008041  -0.000975  30.404600  -5.592080  -9.428540  46.299300   0.005861  -0.002402  30.835400   0.005480  -0.000766   2.019780  13.280400  -0.216120  -1.778770   0.074192  15.097900   0.657337  -3.310050   5.964710  -0.000000   0.000000   0.000000  -1.695520   7.643430  -5.248570  -3.034130   7.152540 -12.023000   3.237020  -1.579920   4.889930  -0.000000   0.000000   0.000000
  5.721710  89.367900  -2.153890  -3.240470 -11.046600  -6.370470  -0.009816   8.327000   0.817797  -0.143003  16.653100   1.663500 -12.066900  -6.601910  -1.408270 -20.436700 -11.616600   7.589240  13.892000   1.844840   7.924860 -72.135300 -30.120700   4.724200   0.261345 -25.172600 -55.506500 120.844000 -75.316600 122.043000  35.201200  14.888700 -53.649500 -25.436600  -0.001077   0.001736  -7.718310   0.000131   0.000763 -22.490900   0.948691  -2.290080 -18.417100   0.009212   0.001487 -12.892100   0.001432   0.005273 -24.837600   0.061493  -0.132933 -24.837600  -0.004195   0.010074 -16.541900  -0.002372  -0.001524 -23.464400  -2.339930   5.373270 -23.574300  -0.003330  -0.000612 -15.700500  -0.002233  -0.003870 -27.241300 -10.595800  19.654400 -43.622600  -0.001959   0.002623 -29.052700  -0.001759  -0.001628 -13.635500   0.518623  -3.862230  72.233000 -34.006500   1.683250  -3.997570 -25.900500  43.011300 -114.936000 -72.334600 -102.669000 -39.271500  28.363800  65.940600  24.756500  -0.002623   0.001232   7.378250  -0.002927   0.006144  28.907800  -2.873160  -5.182400  23.758400   0.003151   0.003725  16.630800   0.001985   0.003362  26.675500  -3.512990  -6.953610  26.887200   0.007520   0.003030  17.906800   0.005343  -0.000662  27.667200  -5.113500  -9.650690  32.662100   0.007447   0.001268  21.752900   0.008142  -0.000961  30.413300  -5.568120  -9.394970  46.303300   0.005980  -0.002365  30.838000   0.005584  -0.000810   2.039060  13.267000  -0.220949  -1.794480   0.079328  15.081100   0.653708  -3.318080   5.945950  -0.000000   0.000000  -0.000000  -1.696440   7.654840  -5.261650  -3.025560   7.145300 -12.035100   3.229340  -1.588230   4.875690   0.000000   0.000000   0.000000
  5.720470  89.367900  -2.127140  -3.236180 -11.041000  -6.338680  -0.016203   8.326610   0.832245  -0.158730  16.652100   1.694230 -12.031100  -6.583070  -1.399640 -20.369400 -11.594200   7.591910  13.880500   1.838680   7.892390 -72.113200 -30.148500   4.713920   0.255863 -25.233200 -55.463800 120.772000 -75.352300 121.961000  35.193000  14.973400 -53.694200 -25.498000  -0.001099   0.001779  -7.748980   0.000145   0.000784 -22.530200   0.953852  -2.298060 -18.449500   0.009298   0.001476 -12.914700   0.001472   0.005292 -24.891400   0.041692  -0.090024 -24.891400  -0.004245   0.010093 -16.577700  -0.002412  -0.001532 -23.499500  -2.330990   5.344020 -23.608400  -0.003342  -0.000553 -15.723200  -0.002237  -0.003857 -27.306700 -10.671300  19.730700 -43.751600  -0.002004   0.002590 -29.138500  -0.001782  -0.001640 -13.626300   0.523658  -3.874140  72.183500 -33.931300   1.691370  -4.023860 -25.926300  43.015300 -114.903000 -72.330700 -102.639000 -39.205700  28.323500  65.982800  24.783300  -0.002632   0.001216   7.391640  -0.002953   0.006213  28.943700  -2.875220  -5.182840  23.787700   0.003174   0.003669  16.651400   0.002025   0.003494  26.713400  -3.510990  -6.938520  26.925500   0.007641   0.002984  17.932300   0.005451  -0.000697  27.675500  -5.089930  -9.601420  32.698300   0.007572   0.001258  21.777000   0.008242  -0.000948  30.431400  -5.547890  -9.345870  46.327900   0.006102  -0.002328  30.854400   0.005688  -0.000852   2.049330  13.262900  -0.236361  -1.813100   0.084464  15.068000   0.651158  -3.323360   5.943030   0.000000   0.000000   0.000000  -1.698160   7.670110  -5.283420  -3.021410   7.141820 -12.039100   3.222590  -1.598760   4.864260  -0.000000   0.000000   0.000000
  5.716120  89.367900  -2.098710  -3.233750 -11.035000  -6.310650  -0.016490   8.326000   0.845718  -0.161948  16.650900   1.721780 -12.021600  -6.558620  -1.392770 -20.345100 -11.559400   7.602910  13.848600   1.831300   7.861410 -72.070200 -30.175800   4.709360   0.283881 -25.285100 -55.422700 120.696000 -75.401300 121.893000  35.150400  14.884700 -53.643600 -25.560300  -0.001106   0.001818  -7.780160   0.000136   0.000801 -22.581500   0.959103  -2.304990 -18.491600   0.009385   0.001465 -12.944100   0.001509   0.005312 -24.996300   0.045558  -0.097799 -24.996400  -0.004303   0.010113 -16.647600  -0.002447  -0.001542 -23.529000  -2.324530   5.321780 -23.637100  -0.003346  -0.000498 -15.742300  -0.002238  -0.003854 -27.385400 -10.769400  19.823400 -43.909000  -0.002047   0.002552 -29.243300  -0.001819  -0.001640 -13.629500   0.539121  -3.874750  72.147400 -33.869500   1.704550  -4.058820 -25.949500  43.021700 -114.774000 -72.366500 -102.483000 -39.103600  28.267300  66.081100  24.822700  -0.002650   0.001273   7.411340  -0.002967   0.006285  29.006300  -2.877560  -5.178320  23.839200   0.003194   0.003620  16.687400   0.002058   0.003633  26.762700  -3.509620  -6.919540  26.979600   0.007763   0.002938  17.968300   0.005554  -0.000731  27.689700  -5.080880  -9.578960  32.797900   0.007705   0.001242  21.843400   0.008343  -0.000931  30.483000  -5.544440  -9.320560  46.406600   0.006230  -0.002291  30.906800   0.005795  -0.000890   2.057080  13.286400  -0.268111  -1.828420   0.043703  15.054400   0.649894  -3.312090   5.958150  -0.000000   0.000000  -0.000000  -1.699440   7.689480  -5.302610  -3.015130   7.137440 -12.049200   3.212280  -1.613370   4.859350   0.000000   0.000000   0.000000
  5.710080  89.367700  -2.069140  -3.229670 -11.027600  -6.284430  -0.015217   8.324420   0.853893  -0.159952  16.647700   1.738060 -12.019700  -6.542590  -1.389710 -20.343300 -11.526200   7.614380  13.804800   1.819870   7.845010 -72.016000 -30.211200   4.704070   0.314139 -25.332200 -55.379900 120.642000 -75.431500 121.851000  35.085500  14.732000 -53.531400 -25.621900  -0.001112   0.001855  -7.810960   0.000125   0.000816 -22.640600   0.966560  -2.316260 -18.540100   0.009470   0.001454 -12.978000   0.001544   0.005334 -25.104600   0.052092  -0.111005 -25.104800  -0.004360   0.010132 -16.719800  -0.002483  -0.001550 -23.560300  -2.318030   5.299090 -23.667600  -0.003347  -0.000442 -15.762600  -0.002239  -0.003849 -27.460000 -10.831300  19.880200 -44.045600  -0.002087   0.002511 -29.334400  -0.001856  -0.001640 -13.634800   0.557102  -3.874850  72.112600 -33.821400   1.723530  -4.094110 -25.965500  43.014700 -114.596000 -72.448300 -102.284000 -39.002600  28.215300  66.179300  24.870100  -0.002669   0.001353   7.435040  -0.002979   0.006357  29.067100  -2.885020  -5.173830  23.888700   0.003211   0.003570  16.722100   0.002090   0.003756  26.803400  -3.508920  -6.907370  27.034200   0.007885   0.002893  18.004800   0.005657  -0.000764  27.702600  -5.075690  -9.564290  32.870400   0.007840   0.001225  21.891700   0.008447  -0.000912  30.525100  -5.542760  -9.303070  46.464700   0.006360  -0.002255  30.945500   0.005904  -0.000925   2.064760  13.309900  -0.300767  -1.834390   0.002937  15.046700   0.647475  -3.300820   5.973260   0.000000   0.000000   0.000000  -1.698760   7.709370  -5.318560  -3.012180   7.132770 -12.055200   3.201430  -1.632890   4.847270  -0.000000   0.000000  -0.000000
